<?xml version="1.0" encoding="utf8" standalone="no"?>
<svg viewBox="0 0 596.75433 427.74475" xmlns="http://www.w3.org/2000/svg" xmlns:xlink="http://www.w3.org/1999/xlink">
<defs>
<linearGradient id="linearGradient8053">
<stop offset="0" stop-color="#fff"/>
<stop offset="1" stop-color="#fff" stop-opacity="0"/>
</linearGradient>
<linearGradient gradientUnits="userSpaceOnUse" id="linearGradient5769" x1="-2510.8079" x2="-2370.7563" y1="1034.3414" y2="1301.0625">
<stop offset="0" stop-color="#541515"/>
<stop offset="1" stop-color="#ca0000" stop-opacity=".87451"/>
</linearGradient>
<linearGradient gradientTransform="matrix(8.9155782e-2,.27251,9.4307621e-2,-4.3275213e-2,-19.81509,320.77253)" gradientUnits="userSpaceOnUse" id="linearGradient11027" x1="203.43352" x2="346.29904" xlink:href="#linearGradient8053"/>
<linearGradient gradientTransform="matrix(-6.3760148e-2,.27954,.10313,1.1414897e-2,101.37386,295.18194)" gradientUnits="userSpaceOnUse" id="linearGradient11029" x1="203.43352" x2="346.29904" xlink:href="#linearGradient8053"/>
<linearGradient gradientUnits="userSpaceOnUse" id="linearGradient5771" x1="198.40731" x2="341.27283" xlink:href="#linearGradient8053"/>
</defs>
<g transform="translate(-4.52806,-196.72703)">
<path d="m242.32496,207.20869h289.48836c32.45491,0 58.9874,22.67776 58.9874,50.41744v305.7441c0,27.94218-26.53249,50.61991-58.9874,50.61991h-289.48836c-32.45492,0-59.22428-22.67773-59.22428-50.61991v-305.7441c0-27.73968 26.76936-50.41744 59.22428-50.41744z" fill="#fc0" stroke="#1f1a17" stroke-width="20.96332"/>
<path d="m-1937.8977,917.08568c51.7487,292.14622-100.0915,580.62362-338.929,643.92262s-474.6754-122.4321-526.4241-414.5784c-1.2465-7.0374-2.2086-13.0132-3.2367-20.1033l435.9133-94.5688 432.6765-114.67212z" fill="url(#linearGradient5769)" stroke="#00f" stroke-linecap="round" stroke-linejoin="round" stroke-width=".4" transform="matrix(.24515,3.7280815e-2,-2.4755295e-2,.16278,992.58957,336.62373)"/>
<path d="m-690.72924,1516.6804c26.39305,121.8128-51.04907,242.0958-172.86187,268.4889s-242.09579-51.0491-268.48889-172.8619c-6.8949-31.8225-7.1264-60.0737-.7538-92.0049" fill="none" stroke="#000" stroke-linecap="round" stroke-linejoin="round" stroke-width="100.01005" transform="matrix(.23581,0,0,-.23581,517.36801,727.67011)"/>
<path d="m-690.72924,1516.6804c26.39305,121.8128-51.04907,242.0958-172.86187,268.4889s-242.09579-51.0491-268.48889-172.8619c-6.8949-31.8225-7.1264-60.0737-.7538-92.0049" fill="none" stroke="#000" stroke-linecap="round" stroke-linejoin="round" stroke-width="100.01005" transform="matrix(.23581,0,0,-.23581,688.80492,731.96797)"/>
<path d="m320.60258,221.10027c11.37279,0-7.4765,3.47705-7.4765,7.25261-117.90277-13.26311-88.90102,41.86916-102.00744,77.39682-11.37279,0-12.71133-32.37025-12.71133-36.17337 6.63017-65.86867 73.18673-44.38247 122.19527-48.47606z" fill="url(#linearGradient5771)"/>
<g transform="matrix(1.19144,-.42159,.42352,1.19688,-166.03164,-33.94534)">
<path d="m160.65327,456.40829c.46054,18.61637 4.25841,40.26719-2.06642,56.08453-4.23681,10.59555-18.20214,19.75768-29.6185,23.15415-15.84589,4.71429-35.41165,4.2762-52.16331,1.37014-11.50618-1.99608-23.42459-6.7562-32.38555-15.90825-8.51253-8.69407-13.69169-19.64101-15.26824-31.58116-1.36117-10.30893-3.75617-23.38487 8.25325-27.15919 11.60108-8.53751 22.36706-19.24164 36.28894-23.80223 23.26101-5.91245 46.79208,1.81949 69.81275,4.69013 6.9252.86356 16.95548,5.40702 17.14708,13.15188z" fill="#fc0" fill-rule="evenodd" stroke="#000" stroke-linecap="round" stroke-linejoin="round" stroke-width="12"/>
<path d="m123.98341,433.99612c8.68658-22.04086 22.80158-44.31465 22.91009-57.98785s-9.41973-25.41602-20.83869-26.43148-19.88071,5.30082-24.03734,20.37601-14.73066,36.8165-22.09598,55.22475c-5.50774-20.78662-10.83579-40.2559-18.25896-53.6812s-18.6631-22.03992-30.48023-17.81925-17.31914,19.65652-9.8374,37.07715 13.59555,40.76328 17.26854,65.28826" fill="#fc0" fill-rule="evenodd" stroke="#000" stroke-linecap="round" stroke-linejoin="round" stroke-width="12"/>
<path d="m42.91784,467.98696c-5.32844-7.93634-18.58767-7.61084-27.49281-.91646s-9.53545,19.45735-5.52209,29.32077c4.73736,11.57453 14.37728,21.93188 26.26393,26.12725 10.30198,4.04626 19.14511-2.70108 20.42416-12.89251 3.21824-7.56847 4.07277-17.52837-2.7132-23.45887-2.87884-2.86934 12.53142,11.03557 24.02157,6.78696 12.44586-2.02542 12.27252-6.37044 14.99111-15.36274-1.73085-11.06224-9.24198-51.84197-31.84725-38.69222s-23.6149,15.78974-18.12542,29.08782z" fill="#fc0" fill-rule="evenodd" stroke="#000" stroke-linecap="round" stroke-linejoin="round" stroke-width="12"/>
<path d="m157.44674,453.90413c-2.58908-11.74642-5.75026-19.86951-16.9209-19.22034s-57.26512,4.57698-61.73568,9.00342c-2.96034,2.93113-3.35641,21.12657 5.46498,28.95673 8.92688,7.9238 44.06591-7.95501 43.20429-7.35319-7.31342,5.10825-16.39762,15.52269-15.12774,28.31734 1.16412,11.72915 8.74669,14.7789 17.96432,16.09777" fill="#fc0" fill-rule="evenodd" stroke="#000" stroke-linecap="round" stroke-linejoin="round" stroke-width="12"/>
<path d="m28.20489,391.02625c1.01395,3.09917 9.30269,11.81817 10.21941,11.39751-6.86602-15.32591-7.77398-23.30251-6.0729-28.62693 1.64076-5.13563 5.61446-9.98034 15.7705-7.79421-1.01394-3.09918-10.40252-8.62214-18.56521-3.83748-7.9694,9.89072-3.03953,21.95543-1.35179,28.86111z" fill="url(#linearGradient11027)"/>
<path d="m106.40359,380.13019c-.72513,3.17917 1.89628,14.92023 2.89877,15.03118 1.99793-16.67435 5.32343-23.9813 9.52156-27.67166 4.04928-3.55952 9.94933-5.66925 17.53315,1.43074 .72514-3.17917-4.48375-12.74557-13.94489-12.84263-11.92254,4.38074-13.90272,17.26251-16.00859,24.05237z" fill="url(#linearGradient11029)"/>
</g>
</g>
</svg>
