<?xml version="1.0" encoding="UTF-8" standalone="no"?>
<svg width="311.29" xmlns="http://www.w3.org/2000/svg" xmlns:xlink="http://www.w3.org/1999/xlink" height="310.29">
 <defs>
  <linearGradient id="linearGradient5169" y2=".52378" spreadMethod="reflect" x2=".50097" y1=".52378" x1=".04223">
   <stop id="stop5165" stop-color="#b5b5b5" offset="0"/>
   <stop id="stop5167" stop-color="#fff" offset="1"/>
  </linearGradient>
  <linearGradient id="linearGradient5147" y2=".50262" spreadMethod="reflect" x2=".5" y1=".50262" x1="-.047159">
   <stop id="stop4148" stop-color="#d30000" offset="0"/>
   <stop id="stop6124" stop-color="#c01616" offset=".5"/>
   <stop id="stop4150" stop-color="#ff9696" offset="1"/>
  </linearGradient>
  <radialGradient id="svg_2" cy=".51068" cx=".50781" r=".64935">
   <stop stop-color="#ff0" offset=".56641"/>
   <stop stop-color="#fff" stop-opacity=".996" offset="1"/>
  </radialGradient>
 </defs>
 <g id="layer1">
  <path id="path2170" d="m305.14 157.71c0.022003 82.07-66.502 148.61-148.57 148.61-82.069 0-148.59-66.542-148.57-148.61-0.02234-82.069 66.502-148.61 148.57-148.61 82.07 0 148.59 66.542 148.57 148.61z" fill-opacity=".84" stroke-width="0" fill="url(#svg_2)"/>
 </g>
 <g stroke-linejoin="round" stroke-linecap="round">
  <g id="layer3" stroke-width="4" stroke="#000" fill="none">
   <path id="path7061" d="m82.286 200.29c50.298 53.833 100.6 53.853 150.9 0"/>
   <path id="svg_5" d="m224.56 171.22c3.0506 23.93 14.398 34.967 34.05 33.097"/>
   <path id="svg_6" d="m57.64 204.78c19.674 1.4157 30.858-9.8695 33.543-33.869"/>
  </g>
  <g display="none">
   <g id="layer4">
    <path id="path5134" d="m83.286 235.14c46.991-34.48 96.874-44.277 150.9 0" stroke="#402b00" stroke-width="18" fill="none"/>
    <g stroke-width="12" fill="#402b00">
     <rect id="rect5136" transform="rotate(21.93)" rx="16.429" ry="16.429" height="62.857" width="32.857" y="29.005" x="125.89"/>
     <rect id="rect5138" transform="rotate(-21.716)" rx="16.429" ry="16.429" height="62.857" width="32.857" y="145.11" x="128.72"/>
    </g>
   </g>
   <g id="layer12">
    <path id="path2475" d="m83.168 234.31c46.991-34.481 96.875-44.278 150.9 0" stroke="#402b00" stroke-width="18" fill="none"/>
    <g stroke-width="12" fill="#402b00">
     <rect id="rect2477" transform="rotate(141.93)" rx="16.429" ry="16.429" height="62.857" width="32.857" y="-188.25" x="-33.319"/>
     <rect id="rect2479" transform="rotate(218.28)" rx="16.429" ry="16.429" height="62.857" width="32.857" y="3.3364" x="-244.69"/>
    </g>
   </g>
   <g id="layer5">
    <path id="path5149" d="m83.286 199.15c46.939 11.274 97.329 13.41 150.9 0" stroke="#402b00" stroke-width="18" fill="none"/>
    <g stroke-width="12">
     <path id="rect2203" fill="url(#linearGradient5147)" stroke="#7c0202" d="m103.32 201.1c35.977 7.484 73.146 9.604 112.92 0-1.274 18.466-5.89 36.931-16.482 55.397-30.154 9.663-49.989 11.624-78.715-0.62199-11.363-18.465-17.669-36.309-17.724-54.775z"/>
     <g fill="#402b00">
      <rect id="rect5151" transform="matrix(.0086440 .99996 -.99996 .0086440 0 0)" rx="16.429" ry="16.429" height="62.857" width="32.857" y="-139.92" x="94.799"/>
      <rect id="rect5153" transform="rotate(269.19)" rx="16.429" ry="16.429" height="62.857" width="32.857" y="167.13" x="-129.57"/>
      <rect id="rect2213" transform="matrix(.75187 -.65931 .66728 .74481 0 0)" rx="16.428" ry="16.428" height="43.722" width="32.855" y="212.28" x="70.067"/>
      <rect id="rect2215" transform="matrix(.65931 .75187 -.74481 .66728 0 0)" rx="16.428" ry="16.428" height="43.722" width="32.855" y="-6.4181" x="128"/>
     </g>
    </g>
   </g>
   <g id="layer6">
    <path id="path6127" d="m96.804 213.14c36.716 17.448 98.197 32.679 137.22-3.731" stroke="#402b00" stroke-width="18" fill="none"/>
    <g stroke-width="12" fill="#402b00">
     <rect id="rect6129" transform="rotate(90)" rx="16.429" ry="16.429" height="62.857" width="32.857" y="-140.71" x="93.857"/>
     <rect id="rect6131" rx="16.429" ry="16.429" height="62.857" width="32.857" y="78.857" x="183.57"/>
    </g>
   </g>
   <g id="layer8">
    <path id="path3202" d="m93.782 220.03c68.788-78.996 69.111 72.616 135.58-13.015" stroke="#402b00" stroke-width="18" fill="none"/>
    <g stroke-width="12" fill="#402b00">
     <rect id="rect3204" transform="rotate(8.4218)" rx="16.429" ry="16.429" height="62.857" width="32.857" y="61.662" x="107.83"/>
     <rect id="rect3206" transform="rotate(-9.6239)" rx="16.429" ry="16.429" height="62.857" width="32.857" y="110.74" x="162.32"/>
    </g>
   </g>
   <g id="layer9">
    <path id="path3209" d="m95.652 236.75c49.095 2.579 79.628-46.617 126.16-44.161" stroke="#402b00" stroke-width="16.705" fill="none"/>
    <g stroke-width="12" fill="#402b00">
     <rect id="rect3211" rx="16.429" ry="16.429" height="62.857" width="32.857" y="78.857" x="92.857"/>
     <rect id="rect3213" rx="16.429" ry="16.429" height="62.857" width="32.857" y="78.857" x="183.57"/>
    </g>
   </g>
   <g id="layer10">
    <path id="rect3222" d="m89.421 168.95h135.83c8.224 0 14.845 7.328 14.845 16.43-2.17 21.241-12.07 58.774-40.02 71.38-25.272 11.398-67.052 9.836-84.714 0.845-30.621-15.589-40.783-52.721-40.783-72.225 0-9.102 6.621-16.43 14.845-16.43z" stroke="#402b00" stroke-width="12.58" fill="url(#linearGradient5169)"/>
    <g stroke-width="12">
     <g fill="#402b00">
      <rect id="rect5173" transform="matrix(.0086440 .99996 -.99996 .0086440 0 0)" rx="16.429" ry="16.429" height="62.857" width="32.857" y="-140.05" x="80.015"/>
      <rect id="rect5175" transform="rotate(269.19)" rx="16.429" ry="16.429" height="62.857" width="32.857" y="167.34" x="-114.79"/>
      <rect id="rect5177" transform="matrix(.75187 -.65931 .66728 .74481 0 0)" rx="16.428" ry="16.428" height="43.722" width="32.855" y="201.17" x="79.933"/>
      <rect id="rect5179" transform="matrix(.65931 .75187 -.74481 .66728 0 0)" rx="16.428" ry="16.428" height="43.722" width="32.855" y="-16.166" x="116.99"/>
     </g>
     <path id="path5181" fill="none" stroke="#402b00" d="m83.26 213.65c46.41 11.336 96.232 13.484 149.19 0"/>
    </g>
   </g>
   <g id="layer11">
    <path id="path4890" d="m83.286 210.68c52.473 0.25899 101.53 1.214 150.9 0" stroke="#402b00" stroke-width="18" fill="none"/>
    <g stroke-width="12" fill="#402b00">
     <rect id="rect4892" rx="16.429" ry="16.429" height="62.857" width="32.857" y="78.857" x="92.857"/>
     <rect id="rect4894" rx="16.429" ry="16.429" height="62.857" width="32.857" y="78.857" x="183.57"/>
    </g>
   </g>
  </g>
  <g stroke-width="3">
   <ellipse id="svg_3" cy="116.71" cx="129.64" rx="14" ry="26"/>
   <ellipse id="svg_4" cy="116.21" cx="176.71" rx="14" ry="26"/>
  </g>
 </g>
</svg>
