<?xml version="1.0" encoding="UTF-8" standalone="no"?>
<!-- Created with Inkscape (http://www.inkscape.org/) -->

<svg
   xmlns:dc="http://purl.org/dc/elements/1.1/"
   xmlns:cc="http://creativecommons.org/ns#"
   xmlns:rdf="http://www.w3.org/1999/02/22-rdf-syntax-ns#"
   xmlns:svg="http://www.w3.org/2000/svg"
   xmlns="http://www.w3.org/2000/svg"
   xmlns:sodipodi="http://sodipodi.sourceforge.net/DTD/sodipodi-0.dtd"
   xmlns:inkscape="http://www.inkscape.org/namespaces/inkscape"
   width="475.95859"
   height="475.95859"
   id="svg2"
   version="1.1"
   inkscape:version="0.48.4 r9939"
   sodipodi:docname="New document 1">
  <defs
     id="defs4">
    <inkscape:path-effect
       effect="spiro"
       id="path-effect2995"
       is_visible="true" />
  </defs>
  <sodipodi:namedview
     id="base"
     pagecolor="#ffffff"
     bordercolor="#666666"
     borderopacity="1.0"
     inkscape:pageopacity="0.0"
     inkscape:pageshadow="2"
     inkscape:zoom="0.94335937"
     inkscape:cx="238.25466"
     inkscape:cy="163.3751"
     inkscape:document-units="px"
     inkscape:current-layer="layer1"
     showgrid="false"
     fit-margin-top="0"
     fit-margin-left="0"
     fit-margin-right="0"
     fit-margin-bottom="0"
     inkscape:window-width="1600"
     inkscape:window-height="880"
     inkscape:window-x="-2"
     inkscape:window-y="-3"
     inkscape:window-maximized="1" />
  <metadata
     id="metadata7">
    <rdf:RDF>
      <cc:Work
         rdf:about="">
        <dc:format>image/svg+xml</dc:format>
        <dc:type
           rdf:resource="http://purl.org/dc/dcmitype/StillImage" />
        <dc:title></dc:title>
      </cc:Work>
    </rdf:RDF>
  </metadata>
  <g
     inkscape:label="Layer 1"
     inkscape:groupmode="layer"
     id="layer1"
     transform="translate(-136.74534,-222.34977)">
    <path
       sodipodi:type="arc"
       style="fill:#ffcc00;fill-opacity:1;stroke:none"
       id="path2987"
       sodipodi:cx="474.36853"
       sodipodi:cy="540.89221"
       sodipodi:rx="237.97929"
       sodipodi:ry="237.97929"
       d="m 712.34782,540.89221 c 0,131.43234 -106.54695,237.9793 -237.97929,237.9793 -131.43233,0 -237.97929,-106.54696 -237.97929,-237.9793 0,-131.43233 106.54696,-237.97929 237.97929,-237.97929 131.43234,0 237.97929,106.54696 237.97929,237.97929 z"
       transform="translate(-99.643892,-80.563147)" />
    <path
       sodipodi:type="arc"
       style="fill:#000000;fill-opacity:1;stroke:none"
       id="path2989"
       sodipodi:cx="-87.983437"
       sodipodi:cy="399.90671"
       sodipodi:rx="41.341614"
       sodipodi:ry="84.273293"
       d="m -46.641823,399.90671 c 0,46.54285 -18.509271,84.27329 -41.341614,84.27329 -22.832343,0 -41.341613,-37.73044 -41.341613,-84.27329 0,-46.54286 18.50927,-84.27329 41.341613,-84.27329 22.832343,0 41.341614,37.73043 41.341614,84.27329 z"
       transform="translate(387.97516,-7.4202903)" />
    <g
       id="g3005"
       transform="matrix(0.99994951,-0.01004832,0.01004832,0.99994951,-1.2035334,11.199969)">
      <path
         style="fill:none;stroke:#000000;stroke-width:11.39075184;stroke-linecap:butt;stroke-linejoin:miter;stroke-opacity:1"
         d="m 223.09988,487.1195 c 9.03017,39.30953 34.10835,74.6822 68.21323,96.2145 34.10489,21.5323 76.82391,28.96374 116.19674,20.21369 27.87973,-6.19587 53.95891,-20.29064 74.41663,-40.21926 20.45772,-19.92862 35.23087,-45.62959 42.15499,-73.33744"
         id="path2993"
         inkscape:connector-curvature="0" />
      <path
         inkscape:connector-curvature="0"
         d="m 201.50945,496.4283 c 4.80269,-0.005 21.28548,0.16946 0.91538,-0.0851 4.66027,-0.24818 8.18801,-1.79842 12.1331,-4.35555 1.98196,-1.57735 4.08188,-3.16895 5.64427,-5.26604 0.83544,-1.12138 0.96659,-1.60572 1.55391,-2.90983 1.10711,-2.9917 1.26371,-6.22842 1.64108,-9.38946 0,0 12.34588,0.20991 12.34588,0.20991 l 0,0 c -0.55855,3.25808 -0.75149,6.60796 -1.79396,9.74889 -0.52999,1.33975 -0.76338,2.15229 -1.57027,3.3281 -1.54453,2.25076 -3.82234,3.84169 -5.77582,5.6168 -3.90036,2.68931 -7.56854,4.63808 -12.27156,4.98721 -8.36395,0.11285 -16.72522,0.21973 -25.08935,0.22638 0,0 12.26734,-2.11133 12.26734,-2.11133 z"
         id="path3001"
         style="fill:#000000;fill-opacity:1;stroke:none" />
      <path
         style="fill:#000000;fill-opacity:1;stroke:none"
         id="path3003"
         d="m 545.3284,496.4283 c -4.80268,-0.005 -21.28548,0.16946 -0.91537,-0.0851 -4.66027,-0.24818 -8.188,-1.79842 -12.13311,-4.35555 -1.98196,-1.57735 -4.08188,-3.16895 -5.64426,-5.26604 -0.83544,-1.12138 -0.9666,-1.60572 -1.55392,-2.90983 -1.1071,-2.9917 -1.2637,-6.22842 -1.64106,-9.38946 0,0 -12.34589,0.20991 -12.34589,0.20991 l 0,0 c 0.55854,3.25808 0.75148,6.60796 1.79395,9.74889 0.52999,1.33975 0.76339,2.15229 1.57028,3.3281 1.54454,2.25076 3.82234,3.84169 5.77582,5.6168 3.90035,2.68931 7.56854,4.63808 12.27156,4.98721 8.36394,0.11285 16.72521,0.21973 25.08934,0.22638 0,0 -12.26734,-2.11133 -12.26734,-2.11133 z"
         inkscape:connector-curvature="0" />
    </g>
    <path
       transform="translate(548.04141,-6.3602489)"
       d="m -46.641823,399.90671 c 0,46.54285 -18.509271,84.27329 -41.341614,84.27329 -22.832343,0 -41.341613,-37.73044 -41.341613,-84.27329 0,-46.54286 18.50927,-84.27329 41.341613,-84.27329 22.832343,0 41.341614,37.73043 41.341614,84.27329 z"
       sodipodi:ry="84.273293"
       sodipodi:rx="41.341614"
       sodipodi:cy="399.90671"
       sodipodi:cx="-87.983437"
       id="path3017"
       style="fill:#000000;fill-opacity:1;stroke:none"
       sodipodi:type="arc" />
    <path
       sodipodi:type="arc"
       style="fill:#000000;fill-opacity:1;stroke:none"
       id="path3019"
       sodipodi:cx="-225.2588"
       sodipodi:cy="412.6272"
       sodipodi:rx="29.151138"
       sodipodi:ry="27.031055"
       d="m -196.10767,412.6272 c 0,14.92884 -13.05141,27.03105 -29.15113,27.03105 -16.09973,0 -29.15114,-12.10221 -29.15114,-27.03105 0,-14.92884 13.05141,-27.03106 29.15114,-27.03106 16.09972,0 29.15113,12.10222 29.15113,27.03106 z"
       transform="matrix(0.82352941,0,0,0.82352941,560.38777,177.23064)" />
    <path
       sodipodi:type="arc"
       style="fill:#ffffff;fill-opacity:1;stroke:none"
       id="path3027"
       sodipodi:cx="-237.44928"
       sodipodi:cy="357.50504"
       sodipodi:rx="25.440994"
       sodipodi:ry="20.670807"
       d="m -212.00829,357.50504 c 0,11.41617 -11.39032,20.6708 -25.44099,20.6708 -14.05067,0 -25.44099,-9.25463 -25.44099,-20.6708 0,-11.41618 11.39032,-20.67081 25.44099,-20.67081 14.05067,0 25.44099,9.25463 25.44099,20.67081 z"
       transform="matrix(0.8125,0,0,0.84615384,109.71428,100.58256)" />
    <path
       transform="matrix(0.8125,0,0,0.84615384,45.051753,73.02148)"
       d="m -212.00829,357.50504 c 0,11.41617 -11.39032,20.6708 -25.44099,20.6708 -14.05067,0 -25.44099,-9.25463 -25.44099,-20.6708 0,-11.41618 11.39032,-20.67081 25.44099,-20.67081 14.05067,0 25.44099,9.25463 25.44099,20.67081 z"
       sodipodi:ry="20.670807"
       sodipodi:rx="25.440994"
       sodipodi:cy="357.50504"
       sodipodi:cx="-237.44928"
       id="path3029"
       style="fill:#ffffff;fill-opacity:1;stroke:none"
       sodipodi:type="arc" />
  </g>
</svg>
